<svg width="32" height="32" viewBox="0 0 32 32" fill="none" xmlns="http://www.w3.org/2000/svg">
<g clip-path="url(#clip0_7_479)">
<path d="M11.7895 0H0V2.49712L11.7895 10.2212V0Z" fill="#41479B"/>
<path d="M0 8.53738V11.7895H4.96369L0 8.53738Z" fill="#41479B"/>
<path d="M0 20.2106V23.4626L4.96369 20.2106H0Z" fill="#41479B"/>
<path d="M32 2.49712V0H20.2105V10.2212L32 2.49712Z" fill="#41479B"/>
<path d="M32 23.4626V20.2106H27.0363L32 23.4626Z" fill="#41479B"/>
<path d="M20.2105 21.7787V32H32V29.5029L20.2105 21.7787Z" fill="#41479B"/>
<path d="M32 11.7895V8.53738L27.0363 11.7895H32Z" fill="#41479B"/>
<path d="M0 29.5029V32H11.7895V21.7787L0 29.5029Z" fill="#41479B"/>
<path d="M32 29.5029V27.0074L21.5291 20.2106H24.6226L32 24.9993V23.4626L27.0363 20.2106H32V18.5263H18.5263V32H20.2105V21.7787L32 29.5029Z" fill="#F5F5F5"/>
<path d="M0 18.5263V20.2106H4.96369L0 23.4626V25.8252L8.64969 20.2106H11.7432L0 27.8333V29.5029L11.7895 21.7787V32H13.4737V18.5263H0Z" fill="#F5F5F5"/>
<path d="M13.4737 0H11.7895V10.2213L0 2.49713V5.22994L10.1053 11.7895H7.01175L0 7.23794V8.53738L4.96369 11.7895H0V13.4737H13.4737V0Z" fill="#F5F5F5"/>
<path d="M32 13.4737V11.7895H27.0363L32 8.53738V6.14463L23.304 11.7895H20.2105L32 4.13656V2.49713L20.2105 10.2213V0H18.5263V13.4737H32Z" fill="#F5F5F5"/>
<path d="M32 18.5263V13.4737H18.5263V0H13.4737V13.4737H0V18.5263H13.4737V32H18.5263V18.5263H32Z" fill="#FF4B55"/>
<path d="M8.64969 20.2106L0 25.8252V27.8332L11.7432 20.2106H8.64969Z" fill="#FF4B55"/>
<path d="M21.5291 20.2106L32 27.0074V24.9993L24.6226 20.2106H21.5291Z" fill="#FF4B55"/>
<path d="M10.1053 11.7895L0 5.22994V7.23794L7.01175 11.7895H10.1053Z" fill="#FF4B55"/>
<path d="M23.304 11.7895L32 6.14462V4.13656L20.2105 11.7895H23.304Z" fill="#FF4B55"/>
</g>
<defs>
<clipPath id="clip0_7_479">
<rect width="32" height="32" rx="4" fill="white"/>
</clipPath>
</defs>
</svg>
