<svg width="32" height="32" viewBox="0 0 32 32" fill="none" xmlns="http://www.w3.org/2000/svg">
<g clip-path="url(#clip0_7_300)">
<path opacity="0.2" d="M27.6364 0H4.36364C1.95367 0 0 1.95367 0 4.36364V27.6364C0 30.0463 1.95367 32 4.36364 32H27.6364C30.0463 32 32 30.0463 32 27.6364V4.36364C32 1.95367 30.0463 0 27.6364 0Z" fill="white"/>
<g clip-path="url(#clip1_7_300)">
<path d="M25.2449 14.2613L17.087 14.2609C16.7268 14.2609 16.4348 14.5528 16.4348 14.9131V17.5191C16.4348 17.8793 16.7268 18.1713 17.087 18.1713H21.681C21.1779 19.4768 20.239 20.5702 19.0411 21.2648L21 24.6558C24.1423 22.8385 26 19.6499 26 16.0804C26 15.5722 25.9625 15.2089 25.8876 14.7998C25.8307 14.4889 25.5608 14.2613 25.2449 14.2613Z" fill="#0E1116"/>
<path d="M16 22.0869C13.7518 22.0869 11.7891 20.8586 10.735 19.0409L7.34418 20.9953C9.06976 23.9861 12.3023 26 16 26C17.8139 26 19.5255 25.5116 21 24.6605V24.6558L19.0411 21.2648C18.1451 21.7845 17.1082 22.0869 16 22.0869Z" fill="#0E1116"/>
<path d="M21 24.6605V24.6558L19.0411 21.2648C18.1451 21.7844 17.1083 22.0869 16 22.0869V26C17.8139 26 19.5256 25.5116 21 24.6605Z" fill="#0E1116"/>
<path d="M9.91305 16C9.91305 14.8918 10.2155 13.8551 10.735 12.9591L7.34418 11.0046C6.48836 12.4744 6 14.1814 6 16C6 17.8186 6.48836 19.5255 7.34418 20.9953L10.735 19.0409C10.2155 18.1449 9.91305 17.1082 9.91305 16Z" fill="#0E1116"/>
<path d="M16 9.91305C17.4661 9.91305 18.8127 10.434 19.8645 11.3005C20.124 11.5143 20.5012 11.4988 20.7389 11.2611L22.5853 9.41465C22.855 9.14496 22.8358 8.70352 22.5477 8.45359C20.7854 6.92473 18.4925 6 16 6C12.3023 6 9.06976 8.01395 7.34418 11.0046L10.735 12.9591C11.7891 11.1414 13.7518 9.91305 16 9.91305Z" fill="#0E1116"/>
<path d="M19.8645 11.3005C20.124 11.5143 20.5012 11.4988 20.7389 11.2611L22.5854 9.41465C22.855 9.14496 22.8358 8.70352 22.5477 8.45359C20.7854 6.92469 18.4925 6 16 6V9.91305C17.466 9.91305 18.8127 10.434 19.8645 11.3005Z" fill="#0E1116"/>
</g>
</g>
<defs>
<clipPath id="clip0_7_300">
<rect width="32" height="32" fill="white"/>
</clipPath>
<clipPath id="clip1_7_300">
<rect width="20" height="20" fill="white" transform="translate(6 6)"/>
</clipPath>
</defs>
</svg>
