<svg width="32" height="32" viewBox="0 0 32 32" fill="none" xmlns="http://www.w3.org/2000/svg">
<g id="Layer 2">
<g id="linkedin">
<path id="background" d="M27.6364 0H4.36364C1.95367 0 0 1.95367 0 4.36364V27.6364C0 30.0463 1.95367 32 4.36364 32H27.6364C30.0463 32 32 30.0463 32 27.6364V4.36364C32 1.95367 30.0463 0 27.6364 0Z" fill="#0077B5"/>
<g id="icon">
<path id="Vector" d="M11.5273 8.72727C11.5273 9.26668 11.3673 9.79397 11.0676 10.2425C10.768 10.691 10.342 11.0405 9.84368 11.2469C9.34534 11.4534 8.79697 11.5074 8.26793 11.4021C7.73889 11.2969 7.25294 11.0372 6.87152 10.6557C6.49011 10.2743 6.23036 9.78838 6.12513 9.25934C6.0199 8.7303 6.0739 8.18194 6.28033 7.68359C6.48675 7.18525 6.83631 6.7593 7.28481 6.45963C7.7333 6.15995 8.26059 6 8.8 6C9.52332 6 10.217 6.28734 10.7285 6.7988C11.2399 7.31026 11.5273 8.00396 11.5273 8.72727Z" fill="white"/>
<path id="Vector_2" d="M10.9091 13.2727V25.3218C10.9096 25.4107 10.8925 25.4988 10.8588 25.5811C10.8251 25.6633 10.7755 25.7381 10.7128 25.8011C10.6501 25.8642 10.5756 25.9142 10.4935 25.9483C10.4114 25.9824 10.3234 26 10.2345 26H7.35999C7.2711 26.0002 7.18304 25.9829 7.10087 25.949C7.01871 25.9151 6.94405 25.8653 6.88119 25.8024C6.81834 25.7396 6.76853 25.6649 6.73462 25.5827C6.70072 25.5006 6.68339 25.4125 6.68363 25.3236V13.2727C6.68363 13.0933 6.75489 12.9213 6.88173 12.7945C7.00857 12.6676 7.18061 12.5964 7.35999 12.5964H10.2345C10.4136 12.5968 10.5852 12.6683 10.7116 12.7951C10.8381 12.9219 10.9091 13.0937 10.9091 13.2727Z" fill="white"/>
<path id="Vector_3" d="M25.9346 19.5455V25.3782C25.9348 25.4599 25.9189 25.5409 25.8877 25.6164C25.8565 25.692 25.8107 25.7606 25.753 25.8184C25.6952 25.8762 25.6265 25.922 25.551 25.9532C25.4754 25.9843 25.3945 26.0002 25.3127 26H22.2218C22.1401 26.0002 22.0591 25.9843 21.9836 25.9532C21.908 25.922 21.8394 25.8762 21.7816 25.8184C21.7238 25.7606 21.678 25.692 21.6468 25.6164C21.6157 25.5409 21.5998 25.4599 21.6 25.3782V19.7255C21.6 18.8818 21.8473 16.0309 19.3945 16.0309C17.4945 16.0309 17.1073 17.9818 17.0309 18.8582V25.3782C17.0309 25.5415 16.9667 25.6983 16.852 25.8147C16.7374 25.931 16.5815 25.9976 16.4182 26H13.4327C13.3512 26 13.2704 25.9839 13.195 25.9526C13.1197 25.9214 13.0513 25.8755 12.9937 25.8178C12.9361 25.76 12.8905 25.6914 12.8594 25.616C12.8284 25.5406 12.8125 25.4598 12.8127 25.3782V13.22C12.8125 13.1384 12.8284 13.0576 12.8594 12.9822C12.8905 12.9067 12.9361 12.8382 12.9937 12.7804C13.0513 12.7227 13.1197 12.6768 13.195 12.6455C13.2704 12.6143 13.3512 12.5982 13.4327 12.5982H16.4182C16.5831 12.5982 16.7413 12.6637 16.8579 12.7803C16.9745 12.8969 17.04 13.0551 17.04 13.22V14.2709C17.7455 13.2127 18.7909 12.3964 21.0218 12.3964C25.9636 12.3964 25.9346 17.0109 25.9346 19.5455Z" fill="white"/>
</g>
</g>
</g>
</svg>
