<svg width="32" height="32" viewBox="0 0 32 32" fill="none" xmlns="http://www.w3.org/2000/svg">
<g id="Layer 2">
<g id="linkedin">
<path id="background" opacity="0.2" d="M27.6364 0H4.36364C1.95367 0 0 1.95367 0 4.36364V27.6364C0 30.0463 1.95367 32 4.36364 32H27.6364C30.0463 32 32 30.0463 32 27.6364V4.36364C32 1.95367 30.0463 0 27.6364 0Z" fill="white"/>
<path id="Vector" d="M21.6967 6.91031H24.8032L18.0182 14.6633L26 25.2147H19.7519L14.8546 18.817L9.25767 25.2147H6.1468L13.4026 16.9205L5.75079 6.91031H12.1573L16.5794 12.758L21.6967 6.91031ZM20.6055 23.3578H22.3259L11.2201 8.67035H9.37207L20.6055 23.3578Z" fill="#0E1116"/>
</g>
</g>
</svg>
